# xmcd CD database file
#
# Track frame offsets:
#	150
#	15490
#	29792
#	43467
#	58062
#	73907
#	86395
#	100357
#	116902
#	136907
#	149592
#	159847
#	174477
#	188642
#	200792
#	212809
#	228145
#	247195
#	258680
#	272997
#	287042
#	300662
#	313002
#	328882
#
# Disc length: 4576 seconds
#
# Revision: 1
# Processed by: cddbd v1.5.1PL0 Copyright (c) Steve Scherf et al.
# Submitted via: CDex 1.51
#
DISCID=7e11de18
DTITLE=Monarcas - Dose Dupla Vol. 1
DYEAR=1995
DGENRE=Other
TTITLE0=Cheiro De Galpao
TTITLE1=Xote A Saudade
TTITLE2=Vida Buenacha
TTITLE3=Embretados
TTITLE4=Replica
TTITLE5=Queimando Campo
TTITLE6=Gineteando O Temporal
TTITLE7=Santuario De Chucros
TTITLE8=Erechim, Historia E Canto
TTITLE9=Fim De Tarde
TTITLE10=Dia De Esperaca
TTITLE11=Parece Mas Nao e
TTITLE12=Fandango Das Tres Fronteiras
TTITLE13=Posteiro
TTITLE14=Cova De Touro
TTITLE15=Quando A Saudade Partir
TTITLE16=Cavalo Raio
TTITLE17=Vanera De Galpao
TTITLE18=Clarinadas De Esperanca
TTITLE19=Nao Encosta A Barriguinha
TTITLE20=Rancho a Beira Mato
TTITLE21=Aquerenciado
TTITLE22=Desenho Da Miseria
TTITLE23=De Lida E Romance
EXTD=YEAR: 1995
EXTT0=
EXTT1=
EXTT2=
EXTT3=
EXTT4=
EXTT5=
EXTT6=
EXTT7=
EXTT8=
EXTT9=
EXTT10=
EXTT11=
EXTT12=
EXTT13=
EXTT14=
EXTT15=
EXTT16=
EXTT17=
EXTT18=
EXTT19=
EXTT20=
EXTT21=
EXTT22=
EXTT23=
PLAYORDER=
